<?xml version="1.0" encoding="UTF-8" standalone="no"?>
<!DOCTYPE svg PUBLIC "-//W3C//DTD SVG 1.1//EN"
 "http://www.w3.org/Graphics/SVG/1.1/DTD/svg11.dtd">
<!-- Generated by graphviz version 2.40.1 (20161225.0304)
 -->
<!-- Title: dependencies Pages: 1 -->
<svg width="504pt" height="211pt"
 viewBox="0.00 0.00 504.00 211.00" xmlns="http://www.w3.org/2000/svg" xmlns:xlink="http://www.w3.org/1999/xlink">
<g id="graph0" class="graph" transform="scale(1 1) rotate(0) translate(4 207)">
<title>dependencies</title>
<polygon fill="#ffffff" stroke="transparent" points="-4,4 -4,-207 500,-207 500,4 -4,4"/>
<text text-anchor="start" x="227.0091" y="-42.4" font-family="sans-serif" font-weight="bold" font-size="14.00" fill="#000000">Legend</text>
<polygon fill="#ffffb3" stroke="transparent" points="14,-10 14,-30 34,-30 34,-10 14,-10"/>
<text text-anchor="start" x="37.629" y="-15.4" font-family="sans-serif" font-size="14.00" fill="#000000"> &#160;Declarations</text>
<polygon fill="#8dd3c7" stroke="transparent" points="127,-10 127,-30 147,-30 147,-10 127,-10"/>
<text text-anchor="start" x="150.7251" y="-15.4" font-family="sans-serif" font-size="14.00" fill="#000000"> &#160;Module</text>
<polygon fill="#80b1d3" stroke="transparent" points="213,-10 213,-30 233,-30 233,-10 213,-10"/>
<text text-anchor="start" x="236.7812" y="-15.4" font-family="sans-serif" font-size="14.00" fill="#000000"> &#160;Bootstrap</text>
<polygon fill="#fdb462" stroke="transparent" points="310,-10 310,-30 330,-30 330,-10 310,-10"/>
<text text-anchor="start" x="333.6732" y="-15.4" font-family="sans-serif" font-size="14.00" fill="#000000"> &#160;Providers</text>
<polygon fill="#fb8072" stroke="transparent" points="406,-10 406,-30 426,-30 426,-10 406,-10"/>
<text text-anchor="start" x="429.7258" y="-15.4" font-family="sans-serif" font-size="14.00" fill="#000000"> &#160;Exports</text>
<g id="clust1" class="cluster">
<title>cluster_MapsPageModule</title>
<polygon fill="none" stroke="#000000" stroke-dasharray="1,5" points="102,-70 102,-195 394,-195 394,-70 102,-70"/>
</g>
<g id="clust2" class="cluster">
<title>cluster_MapsPageModule_declarations</title>
<polygon fill="none" stroke="#000000" points="296,-78 296,-130 386,-130 386,-78 296,-78"/>
</g>
<g id="clust4" class="cluster">
<title>cluster_MapsPageModule_imports</title>
<polygon fill="none" stroke="#000000" points="110,-78 110,-130 288,-130 288,-78 110,-78"/>
</g>
<!-- MapsPage -->
<g id="node1" class="node">
<title>MapsPage</title>
<polygon fill="#ffffb3" stroke="#000000" points="378.3163,-122 303.6837,-122 303.6837,-86 378.3163,-86 378.3163,-122"/>
<text text-anchor="middle" x="341" y="-99.8" font-family="Times,serif" font-size="14.00" fill="#000000">MapsPage</text>
</g>
<!-- MapsPageModule -->
<g id="node2" class="node">
<title>MapsPageModule</title>
<polygon fill="#8dd3c7" stroke="#000000" points="321.8655,-187 318.8655,-191 297.8655,-191 294.8655,-187 204.1345,-187 204.1345,-151 321.8655,-151 321.8655,-187"/>
<text text-anchor="middle" x="263" y="-164.8" font-family="Times,serif" font-size="14.00" fill="#000000">MapsPageModule</text>
</g>
<!-- MapsPage&#45;&gt;MapsPageModule -->
<g id="edge1" class="edge">
<title>MapsPage&#45;&gt;MapsPageModule</title>
<path fill="none" stroke="#000000" d="M312.8875,-122.1061C312.8875,-122.1061 312.8875,-140.991 312.8875,-140.991"/>
<polygon fill="#000000" stroke="#000000" points="309.3875,-140.9909 312.8875,-150.991 316.3875,-140.991 309.3875,-140.9909"/>
</g>
<!-- MapsPageRoutingModule -->
<g id="node3" class="node">
<title>MapsPageRoutingModule</title>
<polygon fill="#8dd3c7" stroke="#000000" points="280.4832,-122 277.4832,-126 256.4832,-126 253.4832,-122 117.5168,-122 117.5168,-86 280.4832,-86 280.4832,-122"/>
<text text-anchor="middle" x="199" y="-99.8" font-family="Times,serif" font-size="14.00" fill="#000000">MapsPageRoutingModule</text>
</g>
<!-- MapsPageRoutingModule&#45;&gt;MapsPageModule -->
<g id="edge2" class="edge">
<title>MapsPageRoutingModule&#45;&gt;MapsPageModule</title>
<path fill="none" stroke="#000000" d="M242.2795,-122.1061C242.2795,-122.1061 242.2795,-140.991 242.2795,-140.991"/>
<polygon fill="#000000" stroke="#000000" points="238.7795,-140.9909 242.2795,-150.991 245.7795,-140.991 238.7795,-140.9909"/>
</g>
</g>
</svg>
