<?xml version="1.0" encoding="UTF-8" standalone="no"?>
<!DOCTYPE svg PUBLIC "-//W3C//DTD SVG 1.1//EN"
 "http://www.w3.org/Graphics/SVG/1.1/DTD/svg11.dtd">
<!-- Generated by graphviz version 2.40.1 (20161225.0304)
 -->
<!-- Title: dependencies Pages: 1 -->
<svg width="504pt" height="211pt"
 viewBox="0.00 0.00 504.00 211.00" xmlns="http://www.w3.org/2000/svg" xmlns:xlink="http://www.w3.org/1999/xlink">
<g id="graph0" class="graph" transform="scale(1 1) rotate(0) translate(4 207)">
<title>dependencies</title>
<polygon fill="#ffffff" stroke="transparent" points="-4,4 -4,-207 500,-207 500,4 -4,4"/>
<text text-anchor="start" x="227.0091" y="-42.4" font-family="sans-serif" font-weight="bold" font-size="14.00" fill="#000000">Legend</text>
<polygon fill="#ffffb3" stroke="transparent" points="14,-10 14,-30 34,-30 34,-10 14,-10"/>
<text text-anchor="start" x="37.629" y="-15.4" font-family="sans-serif" font-size="14.00" fill="#000000"> &#160;Declarations</text>
<polygon fill="#8dd3c7" stroke="transparent" points="127,-10 127,-30 147,-30 147,-10 127,-10"/>
<text text-anchor="start" x="150.7251" y="-15.4" font-family="sans-serif" font-size="14.00" fill="#000000"> &#160;Module</text>
<polygon fill="#80b1d3" stroke="transparent" points="213,-10 213,-30 233,-30 233,-10 213,-10"/>
<text text-anchor="start" x="236.7812" y="-15.4" font-family="sans-serif" font-size="14.00" fill="#000000"> &#160;Bootstrap</text>
<polygon fill="#fdb462" stroke="transparent" points="310,-10 310,-30 330,-30 330,-10 310,-10"/>
<text text-anchor="start" x="333.6732" y="-15.4" font-family="sans-serif" font-size="14.00" fill="#000000"> &#160;Providers</text>
<polygon fill="#fb8072" stroke="transparent" points="406,-10 406,-30 426,-30 426,-10 406,-10"/>
<text text-anchor="start" x="429.7258" y="-15.4" font-family="sans-serif" font-size="14.00" fill="#000000"> &#160;Exports</text>
<g id="clust1" class="cluster">
<title>cluster_LoginPageModule</title>
<polygon fill="none" stroke="#000000" stroke-dasharray="1,5" points="13,-70 13,-195 483,-195 483,-70 13,-70"/>
</g>
<g id="clust2" class="cluster">
<title>cluster_LoginPageModule_declarations</title>
<polygon fill="none" stroke="#000000" points="383,-78 383,-130 475,-130 475,-78 383,-78"/>
</g>
<g id="clust4" class="cluster">
<title>cluster_LoginPageModule_imports</title>
<polygon fill="none" stroke="#000000" points="193,-78 193,-130 375,-130 375,-78 193,-78"/>
</g>
<g id="clust7" class="cluster">
<title>cluster_LoginPageModule_providers</title>
<polygon fill="none" stroke="#000000" points="21,-78 21,-130 185,-130 185,-78 21,-78"/>
</g>
<!-- LoginPage -->
<g id="node1" class="node">
<title>LoginPage</title>
<polygon fill="#ffffb3" stroke="#000000" points="467.1558,-122 390.8442,-122 390.8442,-86 467.1558,-86 467.1558,-122"/>
<text text-anchor="middle" x="429" y="-99.8" font-family="Times,serif" font-size="14.00" fill="#000000">LoginPage</text>
</g>
<!-- LoginPageModule -->
<g id="node2" class="node">
<title>LoginPageModule</title>
<polygon fill="#8dd3c7" stroke="#000000" points="344.205,-187 341.205,-191 320.205,-191 317.205,-187 223.795,-187 223.795,-151 344.205,-151 344.205,-187"/>
<text text-anchor="middle" x="284" y="-164.8" font-family="Times,serif" font-size="14.00" fill="#000000">LoginPageModule</text>
</g>
<!-- LoginPage&#45;&gt;LoginPageModule -->
<g id="edge1" class="edge">
<title>LoginPage&#45;&gt;LoginPageModule</title>
<path fill="none" stroke="#000000" d="M429,-122.1061C429,-141.3391 429,-169 429,-169 429,-169 354.2334,-169 354.2334,-169"/>
<polygon fill="#000000" stroke="#000000" points="354.2334,-165.5001 344.2334,-169 354.2333,-172.5001 354.2334,-165.5001"/>
</g>
<!-- LoginPageRoutingModule -->
<g id="node3" class="node">
<title>LoginPageRoutingModule</title>
<polygon fill="#8dd3c7" stroke="#000000" points="366.8229,-122 363.8229,-126 342.8229,-126 339.8229,-122 201.1771,-122 201.1771,-86 366.8229,-86 366.8229,-122"/>
<text text-anchor="middle" x="284" y="-99.8" font-family="Times,serif" font-size="14.00" fill="#000000">LoginPageRoutingModule</text>
</g>
<!-- LoginPageRoutingModule&#45;&gt;LoginPageModule -->
<g id="edge2" class="edge">
<title>LoginPageRoutingModule&#45;&gt;LoginPageModule</title>
<path fill="none" stroke="#000000" d="M284,-122.1061C284,-122.1061 284,-140.991 284,-140.991"/>
<polygon fill="#000000" stroke="#000000" points="280.5001,-140.9909 284,-150.991 287.5001,-140.991 280.5001,-140.9909"/>
</g>
<!-- NetworkService -->
<g id="node4" class="node">
<title>NetworkService</title>
<ellipse fill="#fdb462" stroke="#000000" cx="103" cy="-104" rx="73.5541" ry="18"/>
<text text-anchor="middle" x="103" y="-99.8" font-family="Times,serif" font-size="14.00" fill="#000000">NetworkService</text>
</g>
<!-- NetworkService&#45;&gt;LoginPageModule -->
<g id="edge3" class="edge">
<title>NetworkService&#45;&gt;LoginPageModule</title>
<path fill="none" stroke="#000000" d="M103,-122.1061C103,-141.3391 103,-169 103,-169 103,-169 213.7296,-169 213.7296,-169"/>
<polygon fill="#000000" stroke="#000000" points="213.7297,-172.5001 223.7296,-169 213.7296,-165.5001 213.7297,-172.5001"/>
</g>
</g>
</svg>
