<?xml version="1.0" encoding="UTF-8" standalone="no"?>
<!DOCTYPE svg PUBLIC "-//W3C//DTD SVG 1.1//EN"
 "http://www.w3.org/Graphics/SVG/1.1/DTD/svg11.dtd">
<!-- Generated by graphviz version 2.40.1 (20161225.0304)
 -->
<!-- Title: dependencies Pages: 1 -->
<svg width="2537pt" height="284pt"
 viewBox="0.00 0.00 2537.00 284.00" xmlns="http://www.w3.org/2000/svg" xmlns:xlink="http://www.w3.org/1999/xlink">
<g id="graph0" class="graph" transform="scale(1 1) rotate(0) translate(4 280)">
<title>dependencies</title>
<polygon fill="#ffffff" stroke="transparent" points="-4,4 -4,-280 2533,-280 2533,4 -4,4"/>
<text text-anchor="start" x="1243.5091" y="-42.4" font-family="sans-serif" font-weight="bold" font-size="14.00" fill="#000000">Legend</text>
<polygon fill="#ffffb3" stroke="transparent" points="1030.5,-10 1030.5,-30 1050.5,-30 1050.5,-10 1030.5,-10"/>
<text text-anchor="start" x="1054.129" y="-15.4" font-family="sans-serif" font-size="14.00" fill="#000000"> &#160;Declarations</text>
<polygon fill="#8dd3c7" stroke="transparent" points="1143.5,-10 1143.5,-30 1163.5,-30 1163.5,-10 1143.5,-10"/>
<text text-anchor="start" x="1167.2251" y="-15.4" font-family="sans-serif" font-size="14.00" fill="#000000"> &#160;Module</text>
<polygon fill="#80b1d3" stroke="transparent" points="1229.5,-10 1229.5,-30 1249.5,-30 1249.5,-10 1229.5,-10"/>
<text text-anchor="start" x="1253.2812" y="-15.4" font-family="sans-serif" font-size="14.00" fill="#000000"> &#160;Bootstrap</text>
<polygon fill="#fdb462" stroke="transparent" points="1326.5,-10 1326.5,-30 1346.5,-30 1346.5,-10 1326.5,-10"/>
<text text-anchor="start" x="1350.1732" y="-15.4" font-family="sans-serif" font-size="14.00" fill="#000000"> &#160;Providers</text>
<polygon fill="#fb8072" stroke="transparent" points="1422.5,-10 1422.5,-30 1442.5,-30 1442.5,-10 1422.5,-10"/>
<text text-anchor="start" x="1446.2258" y="-15.4" font-family="sans-serif" font-size="14.00" fill="#000000"> &#160;Exports</text>
<g id="clust1" class="cluster">
<title>cluster_AppModule</title>
<polygon fill="none" stroke="#000000" stroke-dasharray="1,5" points="8,-70 8,-268 714,-268 714,-70 8,-70"/>
</g>
<g id="clust2" class="cluster">
<title>cluster_AppModule_declarations</title>
<polygon fill="none" stroke="#000000" points="584,-78 584,-130 706,-130 706,-78 584,-78"/>
</g>
<g id="clust4" class="cluster">
<title>cluster_AppModule_imports</title>
<polygon fill="none" stroke="#000000" points="432,-78 432,-130 576,-130 576,-78 432,-78"/>
</g>
<g id="clust6" class="cluster">
<title>cluster_AppModule_bootstrap</title>
<polygon fill="none" stroke="#000000" points="349,-208 349,-260 473,-260 473,-208 349,-208"/>
</g>
<g id="clust7" class="cluster">
<title>cluster_AppModule_providers</title>
<polygon fill="none" stroke="#000000" points="16,-78 16,-130 424,-130 424,-78 16,-78"/>
</g>
<g id="clust14" class="cluster">
<title>cluster_ComponentsModule</title>
<polygon fill="none" stroke="#000000" stroke-dasharray="1,5" points="722,-70 722,-268 1307,-268 1307,-70 722,-70"/>
</g>
<g id="clust15" class="cluster">
<title>cluster_ComponentsModule_declarations</title>
<polygon fill="none" stroke="#000000" points="738,-78 738,-130 1293,-130 1293,-78 738,-78"/>
</g>
<g id="clust21" class="cluster">
<title>cluster_ComponentsModule_exports</title>
<polygon fill="none" stroke="#000000" points="730,-208 730,-260 1299,-260 1299,-208 730,-208"/>
</g>
<g id="clust24" class="cluster">
<title>cluster_LoginPageModule</title>
<polygon fill="none" stroke="#000000" stroke-dasharray="1,5" points="1315,-70 1315,-195 1785,-195 1785,-70 1315,-70"/>
</g>
<g id="clust25" class="cluster">
<title>cluster_LoginPageModule_declarations</title>
<polygon fill="none" stroke="#000000" points="1685,-78 1685,-130 1777,-130 1777,-78 1685,-78"/>
</g>
<g id="clust27" class="cluster">
<title>cluster_LoginPageModule_imports</title>
<polygon fill="none" stroke="#000000" points="1495,-78 1495,-130 1677,-130 1677,-78 1495,-78"/>
</g>
<g id="clust30" class="cluster">
<title>cluster_LoginPageModule_providers</title>
<polygon fill="none" stroke="#000000" points="1323,-78 1323,-130 1487,-130 1487,-78 1323,-78"/>
</g>
<g id="clust37" class="cluster">
<title>cluster_MapsPageModule</title>
<polygon fill="none" stroke="#000000" stroke-dasharray="1,5" points="1793,-70 1793,-195 2085,-195 2085,-70 1793,-70"/>
</g>
<g id="clust38" class="cluster">
<title>cluster_MapsPageModule_declarations</title>
<polygon fill="none" stroke="#000000" points="1987,-78 1987,-130 2077,-130 2077,-78 1987,-78"/>
</g>
<g id="clust40" class="cluster">
<title>cluster_MapsPageModule_imports</title>
<polygon fill="none" stroke="#000000" points="1801,-78 1801,-130 1979,-130 1979,-78 1801,-78"/>
</g>
<g id="clust50" class="cluster">
<title>cluster_MasterPageModule</title>
<polygon fill="none" stroke="#000000" stroke-dasharray="1,5" points="2093,-70 2093,-195 2401,-195 2401,-70 2093,-70"/>
</g>
<g id="clust51" class="cluster">
<title>cluster_MasterPageModule_declarations</title>
<polygon fill="none" stroke="#000000" points="2295,-78 2295,-130 2393,-130 2393,-78 2295,-78"/>
</g>
<g id="clust53" class="cluster">
<title>cluster_MasterPageModule_imports</title>
<polygon fill="none" stroke="#000000" points="2101,-78 2101,-130 2287,-130 2287,-78 2101,-78"/>
</g>
<g id="clust63" class="cluster">
<title>cluster_PipesModule</title>
<polygon fill="none" stroke="#000000" stroke-dasharray="1,5" points="2409,-70 2409,-268 2521,-268 2521,-70 2409,-70"/>
</g>
<g id="clust64" class="cluster">
<title>cluster_PipesModule_declarations</title>
<polygon fill="none" stroke="#000000" points="2419,-78 2419,-130 2511,-130 2511,-78 2419,-78"/>
</g>
<g id="clust67" class="cluster">
<title>cluster_PipesModule_exports</title>
<polygon fill="none" stroke="#000000" points="2417,-208 2417,-260 2513,-260 2513,-208 2417,-208"/>
</g>
<!-- AppComponent -->
<g id="node1" class="node">
<title>AppComponent</title>
<polygon fill="#ffffb3" stroke="#000000" points="697.9399,-122 592.0601,-122 592.0601,-86 697.9399,-86 697.9399,-122"/>
<text text-anchor="middle" x="645" y="-99.8" font-family="Times,serif" font-size="14.00" fill="#000000">AppComponent</text>
</g>
<!-- AppModule -->
<g id="node2" class="node">
<title>AppModule</title>
<polygon fill="#8dd3c7" stroke="#000000" points="452.6571,-187 449.6571,-191 428.6571,-191 425.6571,-187 369.3429,-187 369.3429,-151 452.6571,-151 452.6571,-187"/>
<text text-anchor="middle" x="411" y="-164.8" font-family="Times,serif" font-size="14.00" fill="#000000">AppModule</text>
</g>
<!-- AppComponent&#45;&gt;AppModule -->
<g id="edge1" class="edge">
<title>AppComponent&#45;&gt;AppModule</title>
<path fill="none" stroke="#000000" d="M645,-122.027C645,-138.3976 645,-160 645,-160 645,-160 462.8345,-160 462.8345,-160"/>
<polygon fill="#000000" stroke="#000000" points="462.8345,-156.5001 452.8345,-160 462.8345,-163.5001 462.8345,-156.5001"/>
</g>
<!-- AppComponent  -->
<g id="node4" class="node">
<title>AppComponent </title>
<polygon fill="#80b1d3" stroke="#000000" points="465.439,-252 356.561,-252 356.561,-216 465.439,-216 465.439,-252"/>
<text text-anchor="middle" x="411" y="-229.8" font-family="Times,serif" font-size="14.00" fill="#000000">AppComponent </text>
</g>
<!-- AppModule&#45;&gt;AppComponent  -->
<g id="edge3" class="edge">
<title>AppModule&#45;&gt;AppComponent </title>
<path fill="none" stroke="#000000" stroke-dasharray="1,5" d="M411,-187.1061C411,-187.1061 411,-205.991 411,-205.991"/>
<polygon fill="#000000" stroke="#000000" points="407.5001,-205.9909 411,-215.991 414.5001,-205.991 407.5001,-205.9909"/>
</g>
<!-- AppRoutingModule -->
<g id="node3" class="node">
<title>AppRoutingModule</title>
<polygon fill="#8dd3c7" stroke="#000000" points="568.2744,-122 565.2744,-126 544.2744,-126 541.2744,-122 439.7256,-122 439.7256,-86 568.2744,-86 568.2744,-122"/>
<text text-anchor="middle" x="504" y="-99.8" font-family="Times,serif" font-size="14.00" fill="#000000">AppRoutingModule</text>
</g>
<!-- AppRoutingModule&#45;&gt;AppModule -->
<g id="edge2" class="edge">
<title>AppRoutingModule&#45;&gt;AppModule</title>
<path fill="none" stroke="#000000" d="M446.2206,-122.1061C446.2206,-122.1061 446.2206,-140.991 446.2206,-140.991"/>
<polygon fill="#000000" stroke="#000000" points="442.7206,-140.9909 446.2206,-150.991 449.7206,-140.991 442.7206,-140.9909"/>
</g>
<!-- HttpConfigInterceptor -->
<g id="node5" class="node">
<title>HttpConfigInterceptor</title>
<ellipse fill="#fdb462" stroke="#000000" cx="319" cy="-104" rx="97.2702" ry="18"/>
<text text-anchor="middle" x="319" y="-99.8" font-family="Times,serif" font-size="14.00" fill="#000000">HttpConfigInterceptor</text>
</g>
<!-- HttpConfigInterceptor&#45;&gt;AppModule -->
<g id="edge4" class="edge">
<title>HttpConfigInterceptor&#45;&gt;AppModule</title>
<path fill="none" stroke="#000000" d="M392.7784,-115.922C392.7784,-115.922 392.7784,-140.7669 392.7784,-140.7669"/>
<polygon fill="#000000" stroke="#000000" points="389.2785,-140.7669 392.7784,-150.7669 396.2785,-140.7669 389.2785,-140.7669"/>
</g>
<!-- TranslateappService -->
<g id="node6" class="node">
<title>TranslateappService</title>
<ellipse fill="#fdb462" stroke="#000000" cx="114" cy="-104" rx="89.7229" ry="18"/>
<text text-anchor="middle" x="114" y="-99.8" font-family="Times,serif" font-size="14.00" fill="#000000">TranslateappService</text>
</g>
<!-- TranslateappService&#45;&gt;AppModule -->
<g id="edge5" class="edge">
<title>TranslateappService&#45;&gt;AppModule</title>
<path fill="none" stroke="#000000" d="M114,-122.1061C114,-141.3391 114,-169 114,-169 114,-169 359.0771,-169 359.0771,-169"/>
<polygon fill="#000000" stroke="#000000" points="359.0771,-172.5001 369.0771,-169 359.077,-165.5001 359.0771,-172.5001"/>
</g>
<!-- CarouselComponent -->
<g id="node7" class="node">
<title>CarouselComponent</title>
<polygon fill="#ffffb3" stroke="#000000" points="1284.594,-122 1153.406,-122 1153.406,-86 1284.594,-86 1284.594,-122"/>
<text text-anchor="middle" x="1219" y="-99.8" font-family="Times,serif" font-size="14.00" fill="#000000">CarouselComponent</text>
</g>
<!-- ComponentsModule -->
<g id="node11" class="node">
<title>ComponentsModule</title>
<polygon fill="#8dd3c7" stroke="#000000" points="1009.3272,-187 1006.3272,-191 985.3272,-191 982.3272,-187 878.6728,-187 878.6728,-151 1009.3272,-151 1009.3272,-187"/>
<text text-anchor="middle" x="944" y="-164.8" font-family="Times,serif" font-size="14.00" fill="#000000">ComponentsModule</text>
</g>
<!-- CarouselComponent&#45;&gt;ComponentsModule -->
<g id="edge6" class="edge">
<title>CarouselComponent&#45;&gt;ComponentsModule</title>
<path fill="none" stroke="#000000" d="M1241.9323,-122.027C1241.9323,-138.3976 1241.9323,-160 1241.9323,-160 1241.9323,-160 1019.3825,-160 1019.3825,-160"/>
<polygon fill="#000000" stroke="#000000" points="1019.3825,-156.5001 1009.3825,-160 1019.3825,-163.5001 1019.3825,-156.5001"/>
</g>
<!-- DetailComponent -->
<g id="node8" class="node">
<title>DetailComponent</title>
<polygon fill="#ffffb3" stroke="#000000" points="1135.5409,-122 1020.4591,-122 1020.4591,-86 1135.5409,-86 1135.5409,-122"/>
<text text-anchor="middle" x="1078" y="-99.8" font-family="Times,serif" font-size="14.00" fill="#000000">DetailComponent</text>
</g>
<!-- DetailComponent&#45;&gt;ComponentsModule -->
<g id="edge7" class="edge">
<title>DetailComponent&#45;&gt;ComponentsModule</title>
<path fill="none" stroke="#000000" d="M1020.1855,-104C1011.574,-104 1005.5176,-104 1005.5176,-104 1005.5176,-104 1005.5176,-140.8939 1005.5176,-140.8939"/>
<polygon fill="#000000" stroke="#000000" points="1002.0176,-140.8938 1005.5176,-150.8939 1009.0176,-140.8939 1002.0176,-140.8938"/>
</g>
<!-- HeaderComponent -->
<g id="node9" class="node">
<title>HeaderComponent</title>
<polygon fill="#ffffb3" stroke="#000000" points="1001.7437,-122 880.2563,-122 880.2563,-86 1001.7437,-86 1001.7437,-122"/>
<text text-anchor="middle" x="941" y="-99.8" font-family="Times,serif" font-size="14.00" fill="#000000">HeaderComponent</text>
</g>
<!-- HeaderComponent&#45;&gt;ComponentsModule -->
<g id="edge8" class="edge">
<title>HeaderComponent&#45;&gt;ComponentsModule</title>
<path fill="none" stroke="#000000" d="M941,-122.1061C941,-122.1061 941,-140.991 941,-140.991"/>
<polygon fill="#000000" stroke="#000000" points="937.5001,-140.9909 941,-150.991 944.5001,-140.991 937.5001,-140.9909"/>
</g>
<!-- PosterComponent -->
<g id="node10" class="node">
<title>PosterComponent</title>
<polygon fill="#ffffb3" stroke="#000000" points="862.3259,-122 745.6741,-122 745.6741,-86 862.3259,-86 862.3259,-122"/>
<text text-anchor="middle" x="804" y="-99.8" font-family="Times,serif" font-size="14.00" fill="#000000">PosterComponent</text>
</g>
<!-- PosterComponent&#45;&gt;ComponentsModule -->
<g id="edge9" class="edge">
<title>PosterComponent&#45;&gt;ComponentsModule</title>
<path fill="none" stroke="#000000" d="M820.5542,-122.1061C820.5542,-141.3391 820.5542,-169 820.5542,-169 820.5542,-169 868.6624,-169 868.6624,-169"/>
<polygon fill="#000000" stroke="#000000" points="868.6624,-172.5001 878.6624,-169 868.6623,-165.5001 868.6624,-172.5001"/>
</g>
<!-- CarouselComponent  -->
<g id="node12" class="node">
<title>CarouselComponent </title>
<polygon fill="#fb8072" stroke="#000000" points="1291.0946,-252 1156.9054,-252 1156.9054,-216 1291.0946,-216 1291.0946,-252"/>
<text text-anchor="middle" x="1224" y="-229.8" font-family="Times,serif" font-size="14.00" fill="#000000">CarouselComponent </text>
</g>
<!-- ComponentsModule&#45;&gt;CarouselComponent  -->
<g id="edge10" class="edge">
<title>ComponentsModule&#45;&gt;CarouselComponent </title>
<path fill="none" stroke="#000000" stroke-dasharray="5,2" d="M1009.4191,-169C1085.0661,-169 1199.3177,-169 1199.3177,-169 1199.3177,-169 1199.3177,-205.8939 1199.3177,-205.8939"/>
<polygon fill="#000000" stroke="#000000" points="1195.8178,-205.8938 1199.3177,-215.8939 1202.8178,-205.8939 1195.8178,-205.8938"/>
</g>
<!-- DetailComponent  -->
<g id="node13" class="node">
<title>DetailComponent </title>
<polygon fill="#fb8072" stroke="#000000" points="1138.54,-252 1019.46,-252 1019.46,-216 1138.54,-216 1138.54,-252"/>
<text text-anchor="middle" x="1079" y="-229.8" font-family="Times,serif" font-size="14.00" fill="#000000">DetailComponent </text>
</g>
<!-- ComponentsModule&#45;&gt;DetailComponent  -->
<g id="edge11" class="edge">
<title>ComponentsModule&#45;&gt;DetailComponent </title>
<path fill="none" stroke="#000000" stroke-dasharray="5,2" d="M1005.3926,-187.1061C1005.3926,-206.3391 1005.3926,-234 1005.3926,-234 1005.3926,-234 1009.2375,-234 1009.2375,-234"/>
<polygon fill="#000000" stroke="#000000" points="1009.2376,-237.5001 1019.2375,-234 1009.2375,-230.5001 1009.2376,-237.5001"/>
</g>
<!-- HeaderComponent  -->
<g id="node14" class="node">
<title>HeaderComponent </title>
<polygon fill="#fb8072" stroke="#000000" points="1001.7436,-252 876.2564,-252 876.2564,-216 1001.7436,-216 1001.7436,-252"/>
<text text-anchor="middle" x="939" y="-229.8" font-family="Times,serif" font-size="14.00" fill="#000000">HeaderComponent </text>
</g>
<!-- ComponentsModule&#45;&gt;HeaderComponent  -->
<g id="edge12" class="edge">
<title>ComponentsModule&#45;&gt;HeaderComponent </title>
<path fill="none" stroke="#000000" stroke-dasharray="5,2" d="M940.2292,-187.1061C940.2292,-187.1061 940.2292,-205.991 940.2292,-205.991"/>
<polygon fill="#000000" stroke="#000000" points="936.7292,-205.9909 940.2292,-215.991 943.7292,-205.991 936.7292,-205.9909"/>
</g>
<!-- PosterComponent  -->
<g id="node15" class="node">
<title>PosterComponent </title>
<polygon fill="#fb8072" stroke="#000000" points="857.8255,-252 738.1745,-252 738.1745,-216 857.8255,-216 857.8255,-252"/>
<text text-anchor="middle" x="798" y="-229.8" font-family="Times,serif" font-size="14.00" fill="#000000">PosterComponent </text>
</g>
<!-- ComponentsModule&#45;&gt;PosterComponent  -->
<g id="edge13" class="edge">
<title>ComponentsModule&#45;&gt;PosterComponent </title>
<path fill="none" stroke="#000000" stroke-dasharray="5,2" d="M878.5948,-178C834.0752,-178 783.1958,-178 783.1958,-178 783.1958,-178 783.1958,-205.973 783.1958,-205.973"/>
<polygon fill="#000000" stroke="#000000" points="779.6959,-205.973 783.1958,-215.973 786.6959,-205.973 779.6959,-205.973"/>
</g>
<!-- LoginPage -->
<g id="node16" class="node">
<title>LoginPage</title>
<polygon fill="#ffffb3" stroke="#000000" points="1769.1558,-122 1692.8442,-122 1692.8442,-86 1769.1558,-86 1769.1558,-122"/>
<text text-anchor="middle" x="1731" y="-99.8" font-family="Times,serif" font-size="14.00" fill="#000000">LoginPage</text>
</g>
<!-- LoginPageModule -->
<g id="node17" class="node">
<title>LoginPageModule</title>
<polygon fill="#8dd3c7" stroke="#000000" points="1646.205,-187 1643.205,-191 1622.205,-191 1619.205,-187 1525.795,-187 1525.795,-151 1646.205,-151 1646.205,-187"/>
<text text-anchor="middle" x="1586" y="-164.8" font-family="Times,serif" font-size="14.00" fill="#000000">LoginPageModule</text>
</g>
<!-- LoginPage&#45;&gt;LoginPageModule -->
<g id="edge14" class="edge">
<title>LoginPage&#45;&gt;LoginPageModule</title>
<path fill="none" stroke="#000000" d="M1731,-122.1061C1731,-141.3391 1731,-169 1731,-169 1731,-169 1656.2334,-169 1656.2334,-169"/>
<polygon fill="#000000" stroke="#000000" points="1656.2334,-165.5001 1646.2334,-169 1656.2333,-172.5001 1656.2334,-165.5001"/>
</g>
<!-- LoginPageRoutingModule -->
<g id="node18" class="node">
<title>LoginPageRoutingModule</title>
<polygon fill="#8dd3c7" stroke="#000000" points="1668.8229,-122 1665.8229,-126 1644.8229,-126 1641.8229,-122 1503.1771,-122 1503.1771,-86 1668.8229,-86 1668.8229,-122"/>
<text text-anchor="middle" x="1586" y="-99.8" font-family="Times,serif" font-size="14.00" fill="#000000">LoginPageRoutingModule</text>
</g>
<!-- LoginPageRoutingModule&#45;&gt;LoginPageModule -->
<g id="edge15" class="edge">
<title>LoginPageRoutingModule&#45;&gt;LoginPageModule</title>
<path fill="none" stroke="#000000" d="M1586,-122.1061C1586,-122.1061 1586,-140.991 1586,-140.991"/>
<polygon fill="#000000" stroke="#000000" points="1582.5001,-140.9909 1586,-150.991 1589.5001,-140.991 1582.5001,-140.9909"/>
</g>
<!-- NetworkService -->
<g id="node19" class="node">
<title>NetworkService</title>
<ellipse fill="#fdb462" stroke="#000000" cx="1405" cy="-104" rx="73.5541" ry="18"/>
<text text-anchor="middle" x="1405" y="-99.8" font-family="Times,serif" font-size="14.00" fill="#000000">NetworkService</text>
</g>
<!-- NetworkService&#45;&gt;LoginPageModule -->
<g id="edge16" class="edge">
<title>NetworkService&#45;&gt;LoginPageModule</title>
<path fill="none" stroke="#000000" d="M1405,-122.2921C1405,-144.2057 1405,-178 1405,-178 1405,-178 1515.7296,-178 1515.7296,-178"/>
<polygon fill="#000000" stroke="#000000" points="1515.7297,-181.5001 1525.7296,-178 1515.7296,-174.5001 1515.7297,-181.5001"/>
</g>
<!-- MapsPage -->
<g id="node20" class="node">
<title>MapsPage</title>
<polygon fill="#ffffb3" stroke="#000000" points="2069.3163,-122 1994.6837,-122 1994.6837,-86 2069.3163,-86 2069.3163,-122"/>
<text text-anchor="middle" x="2032" y="-99.8" font-family="Times,serif" font-size="14.00" fill="#000000">MapsPage</text>
</g>
<!-- MapsPageModule -->
<g id="node21" class="node">
<title>MapsPageModule</title>
<polygon fill="#8dd3c7" stroke="#000000" points="2012.8655,-187 2009.8655,-191 1988.8655,-191 1985.8655,-187 1895.1345,-187 1895.1345,-151 2012.8655,-151 2012.8655,-187"/>
<text text-anchor="middle" x="1954" y="-164.8" font-family="Times,serif" font-size="14.00" fill="#000000">MapsPageModule</text>
</g>
<!-- MapsPage&#45;&gt;MapsPageModule -->
<g id="edge17" class="edge">
<title>MapsPage&#45;&gt;MapsPageModule</title>
<path fill="none" stroke="#000000" d="M2003.8875,-122.1061C2003.8875,-122.1061 2003.8875,-140.991 2003.8875,-140.991"/>
<polygon fill="#000000" stroke="#000000" points="2000.3875,-140.9909 2003.8875,-150.991 2007.3875,-140.991 2000.3875,-140.9909"/>
</g>
<!-- MapsPageRoutingModule -->
<g id="node22" class="node">
<title>MapsPageRoutingModule</title>
<polygon fill="#8dd3c7" stroke="#000000" points="1971.4832,-122 1968.4832,-126 1947.4832,-126 1944.4832,-122 1808.5168,-122 1808.5168,-86 1971.4832,-86 1971.4832,-122"/>
<text text-anchor="middle" x="1890" y="-99.8" font-family="Times,serif" font-size="14.00" fill="#000000">MapsPageRoutingModule</text>
</g>
<!-- MapsPageRoutingModule&#45;&gt;MapsPageModule -->
<g id="edge18" class="edge">
<title>MapsPageRoutingModule&#45;&gt;MapsPageModule</title>
<path fill="none" stroke="#000000" d="M1933.2795,-122.1061C1933.2795,-122.1061 1933.2795,-140.991 1933.2795,-140.991"/>
<polygon fill="#000000" stroke="#000000" points="1929.7795,-140.9909 1933.2795,-150.991 1936.7795,-140.991 1929.7795,-140.9909"/>
</g>
<!-- MasterPage -->
<g id="node23" class="node">
<title>MasterPage</title>
<polygon fill="#ffffb3" stroke="#000000" points="2385.0814,-122 2302.9186,-122 2302.9186,-86 2385.0814,-86 2385.0814,-122"/>
<text text-anchor="middle" x="2344" y="-99.8" font-family="Times,serif" font-size="14.00" fill="#000000">MasterPage</text>
</g>
<!-- MasterPageModule -->
<g id="node24" class="node">
<title>MasterPageModule</title>
<polygon fill="#8dd3c7" stroke="#000000" points="2324.6317,-187 2321.6317,-191 2300.6317,-191 2297.6317,-187 2199.3683,-187 2199.3683,-151 2324.6317,-151 2324.6317,-187"/>
<text text-anchor="middle" x="2262" y="-164.8" font-family="Times,serif" font-size="14.00" fill="#000000">MasterPageModule</text>
</g>
<!-- MasterPage&#45;&gt;MasterPageModule -->
<g id="edge19" class="edge">
<title>MasterPage&#45;&gt;MasterPageModule</title>
<path fill="none" stroke="#000000" d="M2313.8875,-122.1061C2313.8875,-122.1061 2313.8875,-140.991 2313.8875,-140.991"/>
<polygon fill="#000000" stroke="#000000" points="2310.3875,-140.9909 2313.8875,-150.991 2317.3875,-140.991 2310.3875,-140.9909"/>
</g>
<!-- MasterPageRoutingModule -->
<g id="node25" class="node">
<title>MasterPageRoutingModule</title>
<polygon fill="#8dd3c7" stroke="#000000" points="2279.2492,-122 2276.2492,-126 2255.2492,-126 2252.2492,-122 2108.7508,-122 2108.7508,-86 2279.2492,-86 2279.2492,-122"/>
<text text-anchor="middle" x="2194" y="-99.8" font-family="Times,serif" font-size="14.00" fill="#000000">MasterPageRoutingModule</text>
</g>
<!-- MasterPageRoutingModule&#45;&gt;MasterPageModule -->
<g id="edge20" class="edge">
<title>MasterPageRoutingModule&#45;&gt;MasterPageModule</title>
<path fill="none" stroke="#000000" d="M2239.2795,-122.1061C2239.2795,-122.1061 2239.2795,-140.991 2239.2795,-140.991"/>
<polygon fill="#000000" stroke="#000000" points="2235.7795,-140.9909 2239.2795,-150.991 2242.7795,-140.991 2235.7795,-140.9909"/>
</g>
<!-- ImagePipe -->
<g id="node26" class="node">
<title>ImagePipe</title>
<polygon fill="#ffffb3" stroke="#000000" points="2502.8683,-122 2427.1317,-122 2427.1317,-86 2502.8683,-86 2502.8683,-122"/>
<text text-anchor="middle" x="2465" y="-99.8" font-family="Times,serif" font-size="14.00" fill="#000000">ImagePipe</text>
</g>
<!-- PipesModule -->
<g id="node27" class="node">
<title>PipesModule</title>
<polygon fill="#8dd3c7" stroke="#000000" points="2509.8823,-187 2506.8823,-191 2485.8823,-191 2482.8823,-187 2420.1177,-187 2420.1177,-151 2509.8823,-151 2509.8823,-187"/>
<text text-anchor="middle" x="2465" y="-164.8" font-family="Times,serif" font-size="14.00" fill="#000000">PipesModule</text>
</g>
<!-- ImagePipe&#45;&gt;PipesModule -->
<g id="edge21" class="edge">
<title>ImagePipe&#45;&gt;PipesModule</title>
<path fill="none" stroke="#000000" d="M2465,-122.1061C2465,-122.1061 2465,-140.991 2465,-140.991"/>
<polygon fill="#000000" stroke="#000000" points="2461.5001,-140.9909 2465,-150.991 2468.5001,-140.991 2461.5001,-140.9909"/>
</g>
<!-- ImagePipe  -->
<g id="node28" class="node">
<title>ImagePipe </title>
<polygon fill="#fb8072" stroke="#000000" points="2504.8691,-252 2425.1309,-252 2425.1309,-216 2504.8691,-216 2504.8691,-252"/>
<text text-anchor="middle" x="2465" y="-229.8" font-family="Times,serif" font-size="14.00" fill="#000000">ImagePipe </text>
</g>
<!-- PipesModule&#45;&gt;ImagePipe  -->
<g id="edge22" class="edge">
<title>PipesModule&#45;&gt;ImagePipe </title>
<path fill="none" stroke="#000000" stroke-dasharray="5,2" d="M2465,-187.1061C2465,-187.1061 2465,-205.991 2465,-205.991"/>
<polygon fill="#000000" stroke="#000000" points="2461.5001,-205.9909 2465,-215.991 2468.5001,-205.991 2461.5001,-205.9909"/>
</g>
</g>
</svg>
