<?xml version="1.0" encoding="UTF-8" standalone="no"?>
<!DOCTYPE svg PUBLIC "-//W3C//DTD SVG 1.1//EN"
 "http://www.w3.org/Graphics/SVG/1.1/DTD/svg11.dtd">
<!-- Generated by graphviz version 2.40.1 (20161225.0304)
 -->
<!-- Title: dependencies Pages: 1 -->
<svg width="2365pt" height="284pt"
 viewBox="0.00 0.00 2365.00 284.00" xmlns="http://www.w3.org/2000/svg" xmlns:xlink="http://www.w3.org/1999/xlink">
<g id="graph0" class="graph" transform="scale(1 1) rotate(0) translate(4 280)">
<title>dependencies</title>
<polygon fill="#ffffff" stroke="transparent" points="-4,4 -4,-280 2361,-280 2361,4 -4,4"/>
<text text-anchor="start" x="1157.5091" y="-42.4" font-family="sans-serif" font-weight="bold" font-size="14.00" fill="#000000">Legend</text>
<polygon fill="#ffffb3" stroke="transparent" points="944.5,-10 944.5,-30 964.5,-30 964.5,-10 944.5,-10"/>
<text text-anchor="start" x="968.129" y="-15.4" font-family="sans-serif" font-size="14.00" fill="#000000"> &#160;Declarations</text>
<polygon fill="#8dd3c7" stroke="transparent" points="1057.5,-10 1057.5,-30 1077.5,-30 1077.5,-10 1057.5,-10"/>
<text text-anchor="start" x="1081.2251" y="-15.4" font-family="sans-serif" font-size="14.00" fill="#000000"> &#160;Module</text>
<polygon fill="#80b1d3" stroke="transparent" points="1143.5,-10 1143.5,-30 1163.5,-30 1163.5,-10 1143.5,-10"/>
<text text-anchor="start" x="1167.2812" y="-15.4" font-family="sans-serif" font-size="14.00" fill="#000000"> &#160;Bootstrap</text>
<polygon fill="#fdb462" stroke="transparent" points="1240.5,-10 1240.5,-30 1260.5,-30 1260.5,-10 1240.5,-10"/>
<text text-anchor="start" x="1264.1732" y="-15.4" font-family="sans-serif" font-size="14.00" fill="#000000"> &#160;Providers</text>
<polygon fill="#fb8072" stroke="transparent" points="1336.5,-10 1336.5,-30 1356.5,-30 1356.5,-10 1336.5,-10"/>
<text text-anchor="start" x="1360.2258" y="-15.4" font-family="sans-serif" font-size="14.00" fill="#000000"> &#160;Exports</text>
<g id="clust1" class="cluster">
<title>cluster_AppModule</title>
<polygon fill="none" stroke="#000000" stroke-dasharray="1,5" points="8,-70 8,-268 714,-268 714,-70 8,-70"/>
</g>
<g id="clust2" class="cluster">
<title>cluster_AppModule_declarations</title>
<polygon fill="none" stroke="#000000" points="584,-78 584,-130 706,-130 706,-78 584,-78"/>
</g>
<g id="clust4" class="cluster">
<title>cluster_AppModule_imports</title>
<polygon fill="none" stroke="#000000" points="432,-78 432,-130 576,-130 576,-78 432,-78"/>
</g>
<g id="clust6" class="cluster">
<title>cluster_AppModule_bootstrap</title>
<polygon fill="none" stroke="#000000" points="349,-208 349,-260 473,-260 473,-208 349,-208"/>
</g>
<g id="clust7" class="cluster">
<title>cluster_AppModule_providers</title>
<polygon fill="none" stroke="#000000" points="16,-78 16,-130 424,-130 424,-78 16,-78"/>
</g>
<g id="clust14" class="cluster">
<title>cluster_ComponentsModule</title>
<polygon fill="none" stroke="#000000" stroke-dasharray="1,5" points="722,-70 722,-268 1307,-268 1307,-70 722,-70"/>
</g>
<g id="clust15" class="cluster">
<title>cluster_ComponentsModule_declarations</title>
<polygon fill="none" stroke="#000000" points="738,-78 738,-130 1293,-130 1293,-78 738,-78"/>
</g>
<g id="clust21" class="cluster">
<title>cluster_ComponentsModule_exports</title>
<polygon fill="none" stroke="#000000" points="730,-208 730,-260 1299,-260 1299,-208 730,-208"/>
</g>
<g id="clust24" class="cluster">
<title>cluster_LoginPageModule</title>
<polygon fill="none" stroke="#000000" stroke-dasharray="1,5" points="1315,-70 1315,-195 1613,-195 1613,-70 1315,-70"/>
</g>
<g id="clust25" class="cluster">
<title>cluster_LoginPageModule_declarations</title>
<polygon fill="none" stroke="#000000" points="1513,-78 1513,-130 1605,-130 1605,-78 1513,-78"/>
</g>
<g id="clust27" class="cluster">
<title>cluster_LoginPageModule_imports</title>
<polygon fill="none" stroke="#000000" points="1323,-78 1323,-130 1505,-130 1505,-78 1323,-78"/>
</g>
<g id="clust37" class="cluster">
<title>cluster_MapsPageModule</title>
<polygon fill="none" stroke="#000000" stroke-dasharray="1,5" points="1621,-70 1621,-195 1913,-195 1913,-70 1621,-70"/>
</g>
<g id="clust38" class="cluster">
<title>cluster_MapsPageModule_declarations</title>
<polygon fill="none" stroke="#000000" points="1815,-78 1815,-130 1905,-130 1905,-78 1815,-78"/>
</g>
<g id="clust40" class="cluster">
<title>cluster_MapsPageModule_imports</title>
<polygon fill="none" stroke="#000000" points="1629,-78 1629,-130 1807,-130 1807,-78 1629,-78"/>
</g>
<g id="clust50" class="cluster">
<title>cluster_MasterPageModule</title>
<polygon fill="none" stroke="#000000" stroke-dasharray="1,5" points="1921,-70 1921,-195 2229,-195 2229,-70 1921,-70"/>
</g>
<g id="clust51" class="cluster">
<title>cluster_MasterPageModule_declarations</title>
<polygon fill="none" stroke="#000000" points="2123,-78 2123,-130 2221,-130 2221,-78 2123,-78"/>
</g>
<g id="clust53" class="cluster">
<title>cluster_MasterPageModule_imports</title>
<polygon fill="none" stroke="#000000" points="1929,-78 1929,-130 2115,-130 2115,-78 1929,-78"/>
</g>
<g id="clust63" class="cluster">
<title>cluster_PipesModule</title>
<polygon fill="none" stroke="#000000" stroke-dasharray="1,5" points="2237,-70 2237,-268 2349,-268 2349,-70 2237,-70"/>
</g>
<g id="clust64" class="cluster">
<title>cluster_PipesModule_declarations</title>
<polygon fill="none" stroke="#000000" points="2247,-78 2247,-130 2339,-130 2339,-78 2247,-78"/>
</g>
<g id="clust67" class="cluster">
<title>cluster_PipesModule_exports</title>
<polygon fill="none" stroke="#000000" points="2245,-208 2245,-260 2341,-260 2341,-208 2245,-208"/>
</g>
<!-- AppComponent -->
<g id="node1" class="node">
<title>AppComponent</title>
<polygon fill="#ffffb3" stroke="#000000" points="697.9399,-122 592.0601,-122 592.0601,-86 697.9399,-86 697.9399,-122"/>
<text text-anchor="middle" x="645" y="-99.8" font-family="Times,serif" font-size="14.00" fill="#000000">AppComponent</text>
</g>
<!-- AppModule -->
<g id="node2" class="node">
<title>AppModule</title>
<polygon fill="#8dd3c7" stroke="#000000" points="452.6571,-187 449.6571,-191 428.6571,-191 425.6571,-187 369.3429,-187 369.3429,-151 452.6571,-151 452.6571,-187"/>
<text text-anchor="middle" x="411" y="-164.8" font-family="Times,serif" font-size="14.00" fill="#000000">AppModule</text>
</g>
<!-- AppComponent&#45;&gt;AppModule -->
<g id="edge1" class="edge">
<title>AppComponent&#45;&gt;AppModule</title>
<path fill="none" stroke="#000000" d="M645,-122.027C645,-138.3976 645,-160 645,-160 645,-160 462.8345,-160 462.8345,-160"/>
<polygon fill="#000000" stroke="#000000" points="462.8345,-156.5001 452.8345,-160 462.8345,-163.5001 462.8345,-156.5001"/>
</g>
<!-- AppComponent  -->
<g id="node4" class="node">
<title>AppComponent </title>
<polygon fill="#80b1d3" stroke="#000000" points="465.439,-252 356.561,-252 356.561,-216 465.439,-216 465.439,-252"/>
<text text-anchor="middle" x="411" y="-229.8" font-family="Times,serif" font-size="14.00" fill="#000000">AppComponent </text>
</g>
<!-- AppModule&#45;&gt;AppComponent  -->
<g id="edge3" class="edge">
<title>AppModule&#45;&gt;AppComponent </title>
<path fill="none" stroke="#000000" stroke-dasharray="1,5" d="M411,-187.1061C411,-187.1061 411,-205.991 411,-205.991"/>
<polygon fill="#000000" stroke="#000000" points="407.5001,-205.9909 411,-215.991 414.5001,-205.991 407.5001,-205.9909"/>
</g>
<!-- AppRoutingModule -->
<g id="node3" class="node">
<title>AppRoutingModule</title>
<polygon fill="#8dd3c7" stroke="#000000" points="568.2744,-122 565.2744,-126 544.2744,-126 541.2744,-122 439.7256,-122 439.7256,-86 568.2744,-86 568.2744,-122"/>
<text text-anchor="middle" x="504" y="-99.8" font-family="Times,serif" font-size="14.00" fill="#000000">AppRoutingModule</text>
</g>
<!-- AppRoutingModule&#45;&gt;AppModule -->
<g id="edge2" class="edge">
<title>AppRoutingModule&#45;&gt;AppModule</title>
<path fill="none" stroke="#000000" d="M446.2206,-122.1061C446.2206,-122.1061 446.2206,-140.991 446.2206,-140.991"/>
<polygon fill="#000000" stroke="#000000" points="442.7206,-140.9909 446.2206,-150.991 449.7206,-140.991 442.7206,-140.9909"/>
</g>
<!-- HttpConfigInterceptor -->
<g id="node5" class="node">
<title>HttpConfigInterceptor</title>
<ellipse fill="#fdb462" stroke="#000000" cx="319" cy="-104" rx="97.2702" ry="18"/>
<text text-anchor="middle" x="319" y="-99.8" font-family="Times,serif" font-size="14.00" fill="#000000">HttpConfigInterceptor</text>
</g>
<!-- HttpConfigInterceptor&#45;&gt;AppModule -->
<g id="edge4" class="edge">
<title>HttpConfigInterceptor&#45;&gt;AppModule</title>
<path fill="none" stroke="#000000" d="M392.7784,-115.922C392.7784,-115.922 392.7784,-140.7669 392.7784,-140.7669"/>
<polygon fill="#000000" stroke="#000000" points="389.2785,-140.7669 392.7784,-150.7669 396.2785,-140.7669 389.2785,-140.7669"/>
</g>
<!-- TranslateappService -->
<g id="node6" class="node">
<title>TranslateappService</title>
<ellipse fill="#fdb462" stroke="#000000" cx="114" cy="-104" rx="89.7229" ry="18"/>
<text text-anchor="middle" x="114" y="-99.8" font-family="Times,serif" font-size="14.00" fill="#000000">TranslateappService</text>
</g>
<!-- TranslateappService&#45;&gt;AppModule -->
<g id="edge5" class="edge">
<title>TranslateappService&#45;&gt;AppModule</title>
<path fill="none" stroke="#000000" d="M114,-122.1061C114,-141.3391 114,-169 114,-169 114,-169 359.0771,-169 359.0771,-169"/>
<polygon fill="#000000" stroke="#000000" points="359.0771,-172.5001 369.0771,-169 359.077,-165.5001 359.0771,-172.5001"/>
</g>
<!-- CarouselComponent -->
<g id="node7" class="node">
<title>CarouselComponent</title>
<polygon fill="#ffffb3" stroke="#000000" points="1284.594,-122 1153.406,-122 1153.406,-86 1284.594,-86 1284.594,-122"/>
<text text-anchor="middle" x="1219" y="-99.8" font-family="Times,serif" font-size="14.00" fill="#000000">CarouselComponent</text>
</g>
<!-- ComponentsModule -->
<g id="node11" class="node">
<title>ComponentsModule</title>
<polygon fill="#8dd3c7" stroke="#000000" points="1009.3272,-187 1006.3272,-191 985.3272,-191 982.3272,-187 878.6728,-187 878.6728,-151 1009.3272,-151 1009.3272,-187"/>
<text text-anchor="middle" x="944" y="-164.8" font-family="Times,serif" font-size="14.00" fill="#000000">ComponentsModule</text>
</g>
<!-- CarouselComponent&#45;&gt;ComponentsModule -->
<g id="edge6" class="edge">
<title>CarouselComponent&#45;&gt;ComponentsModule</title>
<path fill="none" stroke="#000000" d="M1241.9323,-122.0225C1241.9323,-139.3734 1241.9323,-163 1241.9323,-163 1241.9323,-163 1019.3825,-163 1019.3825,-163"/>
<polygon fill="#000000" stroke="#000000" points="1019.3825,-159.5001 1009.3825,-163 1019.3825,-166.5001 1019.3825,-159.5001"/>
</g>
<!-- DetailComponent -->
<g id="node8" class="node">
<title>DetailComponent</title>
<polygon fill="#ffffb3" stroke="#000000" points="1135.5409,-122 1020.4591,-122 1020.4591,-86 1135.5409,-86 1135.5409,-122"/>
<text text-anchor="middle" x="1078" y="-99.8" font-family="Times,serif" font-size="14.00" fill="#000000">DetailComponent</text>
</g>
<!-- DetailComponent&#45;&gt;ComponentsModule -->
<g id="edge7" class="edge">
<title>DetailComponent&#45;&gt;ComponentsModule</title>
<path fill="none" stroke="#000000" d="M1020.1855,-104C1011.574,-104 1005.5176,-104 1005.5176,-104 1005.5176,-104 1005.5176,-140.8939 1005.5176,-140.8939"/>
<polygon fill="#000000" stroke="#000000" points="1002.0176,-140.8938 1005.5176,-150.8939 1009.0176,-140.8939 1002.0176,-140.8938"/>
</g>
<!-- HeaderComponent -->
<g id="node9" class="node">
<title>HeaderComponent</title>
<polygon fill="#ffffb3" stroke="#000000" points="1001.7437,-122 880.2563,-122 880.2563,-86 1001.7437,-86 1001.7437,-122"/>
<text text-anchor="middle" x="941" y="-99.8" font-family="Times,serif" font-size="14.00" fill="#000000">HeaderComponent</text>
</g>
<!-- HeaderComponent&#45;&gt;ComponentsModule -->
<g id="edge8" class="edge">
<title>HeaderComponent&#45;&gt;ComponentsModule</title>
<path fill="none" stroke="#000000" d="M941,-122.1061C941,-122.1061 941,-140.991 941,-140.991"/>
<polygon fill="#000000" stroke="#000000" points="937.5001,-140.9909 941,-150.991 944.5001,-140.991 937.5001,-140.9909"/>
</g>
<!-- PosterComponent -->
<g id="node10" class="node">
<title>PosterComponent</title>
<polygon fill="#ffffb3" stroke="#000000" points="862.3259,-122 745.6741,-122 745.6741,-86 862.3259,-86 862.3259,-122"/>
<text text-anchor="middle" x="804" y="-99.8" font-family="Times,serif" font-size="14.00" fill="#000000">PosterComponent</text>
</g>
<!-- PosterComponent&#45;&gt;ComponentsModule -->
<g id="edge9" class="edge">
<title>PosterComponent&#45;&gt;ComponentsModule</title>
<path fill="none" stroke="#000000" d="M820.5542,-122.1061C820.5542,-141.3391 820.5542,-169 820.5542,-169 820.5542,-169 868.6624,-169 868.6624,-169"/>
<polygon fill="#000000" stroke="#000000" points="868.6624,-172.5001 878.6624,-169 868.6623,-165.5001 868.6624,-172.5001"/>
</g>
<!-- CarouselComponent  -->
<g id="node12" class="node">
<title>CarouselComponent </title>
<polygon fill="#fb8072" stroke="#000000" points="1291.0946,-252 1156.9054,-252 1156.9054,-216 1291.0946,-216 1291.0946,-252"/>
<text text-anchor="middle" x="1224" y="-229.8" font-family="Times,serif" font-size="14.00" fill="#000000">CarouselComponent </text>
</g>
<!-- ComponentsModule&#45;&gt;CarouselComponent  -->
<g id="edge10" class="edge">
<title>ComponentsModule&#45;&gt;CarouselComponent </title>
<path fill="none" stroke="#000000" stroke-dasharray="5,2" d="M1009.4191,-175C1085.0661,-175 1199.3177,-175 1199.3177,-175 1199.3177,-175 1199.3177,-205.9775 1199.3177,-205.9775"/>
<polygon fill="#000000" stroke="#000000" points="1195.8178,-205.9774 1199.3177,-215.9775 1202.8178,-205.9775 1195.8178,-205.9774"/>
</g>
<!-- DetailComponent  -->
<g id="node13" class="node">
<title>DetailComponent </title>
<polygon fill="#fb8072" stroke="#000000" points="1138.54,-252 1019.46,-252 1019.46,-216 1138.54,-216 1138.54,-252"/>
<text text-anchor="middle" x="1079" y="-229.8" font-family="Times,serif" font-size="14.00" fill="#000000">DetailComponent </text>
</g>
<!-- ComponentsModule&#45;&gt;DetailComponent  -->
<g id="edge11" class="edge">
<title>ComponentsModule&#45;&gt;DetailComponent </title>
<path fill="none" stroke="#000000" stroke-dasharray="5,2" d="M1005.3926,-187.1061C1005.3926,-206.3391 1005.3926,-234 1005.3926,-234 1005.3926,-234 1009.2375,-234 1009.2375,-234"/>
<polygon fill="#000000" stroke="#000000" points="1009.2376,-237.5001 1019.2375,-234 1009.2375,-230.5001 1009.2376,-237.5001"/>
</g>
<!-- HeaderComponent  -->
<g id="node14" class="node">
<title>HeaderComponent </title>
<polygon fill="#fb8072" stroke="#000000" points="1001.7436,-252 876.2564,-252 876.2564,-216 1001.7436,-216 1001.7436,-252"/>
<text text-anchor="middle" x="939" y="-229.8" font-family="Times,serif" font-size="14.00" fill="#000000">HeaderComponent </text>
</g>
<!-- ComponentsModule&#45;&gt;HeaderComponent  -->
<g id="edge12" class="edge">
<title>ComponentsModule&#45;&gt;HeaderComponent </title>
<path fill="none" stroke="#000000" stroke-dasharray="5,2" d="M940.2292,-187.1061C940.2292,-187.1061 940.2292,-205.991 940.2292,-205.991"/>
<polygon fill="#000000" stroke="#000000" points="936.7292,-205.9909 940.2292,-215.991 943.7292,-205.991 936.7292,-205.9909"/>
</g>
<!-- PosterComponent  -->
<g id="node15" class="node">
<title>PosterComponent </title>
<polygon fill="#fb8072" stroke="#000000" points="857.8255,-252 738.1745,-252 738.1745,-216 857.8255,-216 857.8255,-252"/>
<text text-anchor="middle" x="798" y="-229.8" font-family="Times,serif" font-size="14.00" fill="#000000">PosterComponent </text>
</g>
<!-- ComponentsModule&#45;&gt;PosterComponent  -->
<g id="edge13" class="edge">
<title>ComponentsModule&#45;&gt;PosterComponent </title>
<path fill="none" stroke="#000000" stroke-dasharray="5,2" d="M878.5948,-178C834.0752,-178 783.1958,-178 783.1958,-178 783.1958,-178 783.1958,-205.973 783.1958,-205.973"/>
<polygon fill="#000000" stroke="#000000" points="779.6959,-205.973 783.1958,-215.973 786.6959,-205.973 779.6959,-205.973"/>
</g>
<!-- LoginPage -->
<g id="node16" class="node">
<title>LoginPage</title>
<polygon fill="#ffffb3" stroke="#000000" points="1597.1558,-122 1520.8442,-122 1520.8442,-86 1597.1558,-86 1597.1558,-122"/>
<text text-anchor="middle" x="1559" y="-99.8" font-family="Times,serif" font-size="14.00" fill="#000000">LoginPage</text>
</g>
<!-- LoginPageModule -->
<g id="node17" class="node">
<title>LoginPageModule</title>
<polygon fill="#8dd3c7" stroke="#000000" points="1539.205,-187 1536.205,-191 1515.205,-191 1512.205,-187 1418.795,-187 1418.795,-151 1539.205,-151 1539.205,-187"/>
<text text-anchor="middle" x="1479" y="-164.8" font-family="Times,serif" font-size="14.00" fill="#000000">LoginPageModule</text>
</g>
<!-- LoginPage&#45;&gt;LoginPageModule -->
<g id="edge14" class="edge">
<title>LoginPage&#45;&gt;LoginPageModule</title>
<path fill="none" stroke="#000000" d="M1529.8875,-122.1061C1529.8875,-122.1061 1529.8875,-140.991 1529.8875,-140.991"/>
<polygon fill="#000000" stroke="#000000" points="1526.3875,-140.9909 1529.8875,-150.991 1533.3875,-140.991 1526.3875,-140.9909"/>
</g>
<!-- LoginPageRoutingModule -->
<g id="node18" class="node">
<title>LoginPageRoutingModule</title>
<polygon fill="#8dd3c7" stroke="#000000" points="1496.8229,-122 1493.8229,-126 1472.8229,-126 1469.8229,-122 1331.1771,-122 1331.1771,-86 1496.8229,-86 1496.8229,-122"/>
<text text-anchor="middle" x="1414" y="-99.8" font-family="Times,serif" font-size="14.00" fill="#000000">LoginPageRoutingModule</text>
</g>
<!-- LoginPageRoutingModule&#45;&gt;LoginPageModule -->
<g id="edge15" class="edge">
<title>LoginPageRoutingModule&#45;&gt;LoginPageModule</title>
<path fill="none" stroke="#000000" d="M1457.7795,-122.1061C1457.7795,-122.1061 1457.7795,-140.991 1457.7795,-140.991"/>
<polygon fill="#000000" stroke="#000000" points="1454.2795,-140.9909 1457.7795,-150.991 1461.2795,-140.991 1454.2795,-140.9909"/>
</g>
<!-- MapsPage -->
<g id="node19" class="node">
<title>MapsPage</title>
<polygon fill="#ffffb3" stroke="#000000" points="1897.3163,-122 1822.6837,-122 1822.6837,-86 1897.3163,-86 1897.3163,-122"/>
<text text-anchor="middle" x="1860" y="-99.8" font-family="Times,serif" font-size="14.00" fill="#000000">MapsPage</text>
</g>
<!-- MapsPageModule -->
<g id="node20" class="node">
<title>MapsPageModule</title>
<polygon fill="#8dd3c7" stroke="#000000" points="1840.8655,-187 1837.8655,-191 1816.8655,-191 1813.8655,-187 1723.1345,-187 1723.1345,-151 1840.8655,-151 1840.8655,-187"/>
<text text-anchor="middle" x="1782" y="-164.8" font-family="Times,serif" font-size="14.00" fill="#000000">MapsPageModule</text>
</g>
<!-- MapsPage&#45;&gt;MapsPageModule -->
<g id="edge16" class="edge">
<title>MapsPage&#45;&gt;MapsPageModule</title>
<path fill="none" stroke="#000000" d="M1831.8875,-122.1061C1831.8875,-122.1061 1831.8875,-140.991 1831.8875,-140.991"/>
<polygon fill="#000000" stroke="#000000" points="1828.3875,-140.9909 1831.8875,-150.991 1835.3875,-140.991 1828.3875,-140.9909"/>
</g>
<!-- MapsPageRoutingModule -->
<g id="node21" class="node">
<title>MapsPageRoutingModule</title>
<polygon fill="#8dd3c7" stroke="#000000" points="1799.4832,-122 1796.4832,-126 1775.4832,-126 1772.4832,-122 1636.5168,-122 1636.5168,-86 1799.4832,-86 1799.4832,-122"/>
<text text-anchor="middle" x="1718" y="-99.8" font-family="Times,serif" font-size="14.00" fill="#000000">MapsPageRoutingModule</text>
</g>
<!-- MapsPageRoutingModule&#45;&gt;MapsPageModule -->
<g id="edge17" class="edge">
<title>MapsPageRoutingModule&#45;&gt;MapsPageModule</title>
<path fill="none" stroke="#000000" d="M1761.2795,-122.1061C1761.2795,-122.1061 1761.2795,-140.991 1761.2795,-140.991"/>
<polygon fill="#000000" stroke="#000000" points="1757.7795,-140.9909 1761.2795,-150.991 1764.7795,-140.991 1757.7795,-140.9909"/>
</g>
<!-- MasterPage -->
<g id="node22" class="node">
<title>MasterPage</title>
<polygon fill="#ffffb3" stroke="#000000" points="2213.0814,-122 2130.9186,-122 2130.9186,-86 2213.0814,-86 2213.0814,-122"/>
<text text-anchor="middle" x="2172" y="-99.8" font-family="Times,serif" font-size="14.00" fill="#000000">MasterPage</text>
</g>
<!-- MasterPageModule -->
<g id="node23" class="node">
<title>MasterPageModule</title>
<polygon fill="#8dd3c7" stroke="#000000" points="2152.6317,-187 2149.6317,-191 2128.6317,-191 2125.6317,-187 2027.3683,-187 2027.3683,-151 2152.6317,-151 2152.6317,-187"/>
<text text-anchor="middle" x="2090" y="-164.8" font-family="Times,serif" font-size="14.00" fill="#000000">MasterPageModule</text>
</g>
<!-- MasterPage&#45;&gt;MasterPageModule -->
<g id="edge18" class="edge">
<title>MasterPage&#45;&gt;MasterPageModule</title>
<path fill="none" stroke="#000000" d="M2141.8875,-122.1061C2141.8875,-122.1061 2141.8875,-140.991 2141.8875,-140.991"/>
<polygon fill="#000000" stroke="#000000" points="2138.3875,-140.9909 2141.8875,-150.991 2145.3875,-140.991 2138.3875,-140.9909"/>
</g>
<!-- MasterPageRoutingModule -->
<g id="node24" class="node">
<title>MasterPageRoutingModule</title>
<polygon fill="#8dd3c7" stroke="#000000" points="2107.2492,-122 2104.2492,-126 2083.2492,-126 2080.2492,-122 1936.7508,-122 1936.7508,-86 2107.2492,-86 2107.2492,-122"/>
<text text-anchor="middle" x="2022" y="-99.8" font-family="Times,serif" font-size="14.00" fill="#000000">MasterPageRoutingModule</text>
</g>
<!-- MasterPageRoutingModule&#45;&gt;MasterPageModule -->
<g id="edge19" class="edge">
<title>MasterPageRoutingModule&#45;&gt;MasterPageModule</title>
<path fill="none" stroke="#000000" d="M2067.2795,-122.1061C2067.2795,-122.1061 2067.2795,-140.991 2067.2795,-140.991"/>
<polygon fill="#000000" stroke="#000000" points="2063.7795,-140.9909 2067.2795,-150.991 2070.7795,-140.991 2063.7795,-140.9909"/>
</g>
<!-- ImagePipe -->
<g id="node25" class="node">
<title>ImagePipe</title>
<polygon fill="#ffffb3" stroke="#000000" points="2330.8683,-122 2255.1317,-122 2255.1317,-86 2330.8683,-86 2330.8683,-122"/>
<text text-anchor="middle" x="2293" y="-99.8" font-family="Times,serif" font-size="14.00" fill="#000000">ImagePipe</text>
</g>
<!-- PipesModule -->
<g id="node26" class="node">
<title>PipesModule</title>
<polygon fill="#8dd3c7" stroke="#000000" points="2337.8823,-187 2334.8823,-191 2313.8823,-191 2310.8823,-187 2248.1177,-187 2248.1177,-151 2337.8823,-151 2337.8823,-187"/>
<text text-anchor="middle" x="2293" y="-164.8" font-family="Times,serif" font-size="14.00" fill="#000000">PipesModule</text>
</g>
<!-- ImagePipe&#45;&gt;PipesModule -->
<g id="edge20" class="edge">
<title>ImagePipe&#45;&gt;PipesModule</title>
<path fill="none" stroke="#000000" d="M2293,-122.1061C2293,-122.1061 2293,-140.991 2293,-140.991"/>
<polygon fill="#000000" stroke="#000000" points="2289.5001,-140.9909 2293,-150.991 2296.5001,-140.991 2289.5001,-140.9909"/>
</g>
<!-- ImagePipe  -->
<g id="node27" class="node">
<title>ImagePipe </title>
<polygon fill="#fb8072" stroke="#000000" points="2332.8691,-252 2253.1309,-252 2253.1309,-216 2332.8691,-216 2332.8691,-252"/>
<text text-anchor="middle" x="2293" y="-229.8" font-family="Times,serif" font-size="14.00" fill="#000000">ImagePipe </text>
</g>
<!-- PipesModule&#45;&gt;ImagePipe  -->
<g id="edge21" class="edge">
<title>PipesModule&#45;&gt;ImagePipe </title>
<path fill="none" stroke="#000000" stroke-dasharray="5,2" d="M2293,-187.1061C2293,-187.1061 2293,-205.991 2293,-205.991"/>
<polygon fill="#000000" stroke="#000000" points="2289.5001,-205.9909 2293,-215.991 2296.5001,-205.991 2289.5001,-205.9909"/>
</g>
</g>
</svg>
